<?xml version="1.0" encoding="UTF-8" standalone="no"?>
<svg xmlns="http://www.w3.org/2000/svg"
     xmlns:svg="http://www.w3.org/2000/svg"
     version="1.1"
     width="1.96in" height="1.44in"
     viewBox="0 0 588 432">
	 <defs>
    <linearGradient id="topGradient" x1="0%" y1="0%" x2="100%" y2="0%">
      <stop offset="0%" stop-color="#e62e3b" />
      <stop offset="100%" stop-color="#eaa630" />
    </linearGradient>
	<linearGradient id="middleGradient" x1="0%" y1="0%" x2="100%" y2="0%">
      <stop offset="0%" stop-color="#2586f3" />
      <stop offset="100%" stop-color="#73afeb" />
    </linearGradient>
	<linearGradient id="bottomGradient" x1="0%" y1="0%" x2="100%" y2="0%">
      <stop offset="0%" stop-color="#2887f2" />
      <stop offset="100%" stop-color="#2786ef" />
    </linearGradient>
  </defs>
  <path id="path1"
        fill="url(#topGradient)" stroke="black" stroke-width="1"
        d="M 70.51,119.44
           C 64.64,114.82 51.82,95.27 46.58,88.00
             46.58,88.00 20.63,52.00 20.63,52.00
             16.76,46.78 6.93,33.51 4.97,28.00
             0.91,16.62 9.13,7.02 20.00,4.53
             22.62,3.92 25.33,4.00 28.00,4.00
             28.00,4.00 557.00,4.00 557.00,4.00
             561.80,4.01 564.25,4.08 569.00,5.24
             581.10,8.19 587.42,17.63 583.11,29.75
             579.67,36.46 513.77,133.96 507.93,136.02
             506.54,136.99 500.93,137.01 498.00,137.00
             498.00,137.00 483.00,137.00 483.00,137.00
             483.00,137.00 464.00,136.00 464.00,136.00
             464.00,136.00 453.00,135.04 453.00,135.04
             329.98,123.66 334.67,112.92 217.53,104.24
             206.05,103.34 186.00,103.00 186.00,103.00
             186.00,103.00 173.00,103.00 173.00,103.00
             173.00,103.00 149.00,103.96 149.00,103.96
             149.00,103.96 114.51,106.61 114.51,106.61
             114.51,106.61 90.65,110.07 90.65,110.07
             81.20,111.85 75.45,112.70 70.51,119.44 Z" />
  <path id="path2"
        fill="url(#middleGradient)" stroke="black" stroke-width="1"
        d="M 141.94,135.56
           C 141.94,135.56 201.00,135.14 201.00,135.14
             201.00,135.14 227.23,135.56 227.23,135.56
             227.23,135.56 261.00,136.91 261.00,136.91
             261.00,136.91 286.84,138.79 294.07,139.39
             356.64,146.04 386.00,149.87 386.00,149.87
             386.00,149.87 408.44,152.77 423.00,154.85
             452.49,158.92 467.94,161.80 474.96,166.55
             483.15,172.08 484.03,181.22 480.15,188.66
             480.15,188.66 464.05,210.93 464.05,210.93
             464.05,210.93 433.07,254.31 433.07,254.31
             426.15,263.70 421.16,270.43 412.85,270.31
             404.51,269.95 390.12,266.40 381.73,264.55
             381.73,264.55 350.92,257.58 350.92,257.58
             350.92,257.58 314.87,250.58 314.87,250.58
             314.87,250.58 300.64,247.42 272.96,244.61
             272.96,244.61 250.41,243.82 250.41,243.82
             250.41,243.82 221.54,243.47 221.54,243.47
             221.54,243.47 194.94,243.41 175.32,246.76
             162.14,248.52 163.35,252.67 161.04,251.48
             159.09,250.79 156.55,246.38 154.89,244.13
             154.89,244.13 104.40,172.66 104.40,172.66
             99.26,164.96 91.75,156.75 97.38,147.13
             104.53,134.93 128.42,136.71 141.94,135.56 Z" />
  <path id="path3"
        fill="url(#bottomGradient)" stroke="black" stroke-width="1"
        d="M 373.38,287.35
           C 384.77,290.81 394.63,299.39 391.35,313.00
             389.68,316.89 385.40,321.83 383.02,325.18
             383.02,325.18 369.79,343.62 369.79,343.62
             369.79,343.62 322.41,410.04 322.41,410.04
             314.21,420.12 306.95,431.47 292.69,429.08
             279.65,426.27 269.63,409.14 262.39,398.69
             262.39,398.69 199.46,308.78 199.46,308.78
             193.41,300.23 184.71,290.39 193.74,280.52
             199.35,274.40 205.99,274.11 213.38,272.58
             237.07,269.42 266.65,269.51 266.65,269.51
             266.65,269.51 295.57,270.91 304.58,271.90
             322.51,274.63 334.87,277.11 334.87,277.11
             334.87,277.11 354.95,281.84 354.95,281.84
             354.95,281.84 373.38,287.35 373.38,287.35 Z" />
</svg>
